<svg width="410" height="85" viewBox="0 0 410 85" fill="none" xmlns="http://www.w3.org/2000/svg">
<rect x="1" y="1" width="408" height="83" rx="4" fill="white" stroke="white" stroke-width="2"/>
<path d="M106.111 36.816H109.351V44.184H109.543L115.831 36.816H119.743V37.008L113.527 44.112L120.391 53.808V54H116.431L111.319 46.68L109.351 48.96V54H106.111V36.816ZM126.881 41.856C127.793 41.856 128.625 42.016 129.377 42.336C130.145 42.64 130.801 43.072 131.345 43.632C131.905 44.176 132.337 44.832 132.641 45.6C132.961 46.368 133.121 47.208 133.121 48.12C133.121 49.032 132.961 49.872 132.641 50.64C132.337 51.408 131.905 52.072 131.345 52.632C130.801 53.176 130.145 53.608 129.377 53.928C128.625 54.232 127.793 54.384 126.881 54.384C125.969 54.384 125.129 54.232 124.361 53.928C123.609 53.608 122.953 53.176 122.393 52.632C121.849 52.072 121.417 51.408 121.097 50.64C120.793 49.872 120.641 49.032 120.641 48.12C120.641 47.208 120.793 46.368 121.097 45.6C121.417 44.832 121.849 44.176 122.393 43.632C122.953 43.072 123.609 42.64 124.361 42.336C125.129 42.016 125.969 41.856 126.881 41.856ZM126.881 51.48C127.281 51.48 127.665 51.408 128.033 51.264C128.417 51.104 128.753 50.88 129.041 50.592C129.329 50.304 129.553 49.952 129.713 49.536C129.889 49.12 129.977 48.648 129.977 48.12C129.977 47.592 129.889 47.12 129.713 46.704C129.553 46.288 129.329 45.936 129.041 45.648C128.753 45.36 128.417 45.144 128.033 45C127.665 44.84 127.281 44.76 126.881 44.76C126.465 44.76 126.073 44.84 125.705 45C125.337 45.144 125.009 45.36 124.721 45.648C124.433 45.936 124.201 46.288 124.025 46.704C123.865 47.12 123.785 47.592 123.785 48.12C123.785 48.648 123.865 49.12 124.025 49.536C124.201 49.952 124.433 50.304 124.721 50.592C125.009 50.88 125.337 51.104 125.705 51.264C126.073 51.408 126.465 51.48 126.881 51.48ZM137.859 43.776H138.051C138.419 43.184 138.915 42.72 139.539 42.384C140.163 42.032 140.875 41.856 141.675 41.856C142.411 41.856 143.059 41.976 143.619 42.216C144.179 42.456 144.635 42.8 144.987 43.248C145.355 43.68 145.627 44.208 145.803 44.832C145.995 45.44 146.091 46.12 146.091 46.872V54H142.947V47.256C142.947 46.408 142.755 45.784 142.371 45.384C142.003 44.968 141.459 44.76 140.739 44.76C140.307 44.76 139.923 44.856 139.587 45.048C139.267 45.224 138.987 45.472 138.747 45.792C138.523 46.096 138.347 46.464 138.219 46.896C138.107 47.312 138.051 47.76 138.051 48.24V54H134.907V42.24H137.859V43.776ZM153.227 54.384C152.459 54.384 151.771 54.288 151.163 54.096C150.571 53.904 150.051 53.656 149.603 53.352C149.171 53.032 148.803 52.672 148.499 52.272C148.195 51.856 147.963 51.44 147.803 51.024L150.611 49.824C150.883 50.432 151.243 50.888 151.691 51.192C152.155 51.48 152.667 51.624 153.227 51.624C153.803 51.624 154.259 51.52 154.595 51.312C154.931 51.104 155.099 50.856 155.099 50.568C155.099 50.248 154.955 49.992 154.667 49.8C154.395 49.592 153.915 49.408 153.227 49.248L151.571 48.888C151.203 48.808 150.819 48.68 150.419 48.504C150.035 48.328 149.683 48.104 149.363 47.832C149.043 47.56 148.779 47.232 148.571 46.848C148.363 46.464 148.259 46.016 148.259 45.504C148.259 44.928 148.379 44.416 148.619 43.968C148.875 43.52 149.219 43.144 149.651 42.84C150.083 42.52 150.587 42.28 151.163 42.12C151.755 41.944 152.387 41.856 153.059 41.856C154.179 41.856 155.179 42.08 156.059 42.528C156.939 42.96 157.587 43.656 158.003 44.616L155.291 45.72C155.067 45.256 154.739 44.92 154.307 44.712C153.875 44.504 153.443 44.4 153.011 44.4C152.563 44.4 152.171 44.496 151.835 44.688C151.499 44.864 151.331 45.096 151.331 45.384C151.331 45.656 151.467 45.872 151.739 46.032C152.027 46.192 152.411 46.336 152.891 46.464L154.691 46.896C155.891 47.184 156.779 47.648 157.355 48.288C157.947 48.912 158.243 49.656 158.243 50.52C158.243 51.032 158.123 51.52 157.883 51.984C157.643 52.448 157.299 52.864 156.851 53.232C156.419 53.584 155.891 53.864 155.267 54.072C154.659 54.28 153.979 54.384 153.227 54.384ZM168.308 52.464H168.116C167.748 53.056 167.252 53.528 166.628 53.88C166.004 54.216 165.292 54.384 164.492 54.384C163.004 54.384 161.892 53.928 161.156 53.016C160.436 52.104 160.076 50.888 160.076 49.368V42.24H163.22V48.984C163.22 49.832 163.404 50.464 163.772 50.88C164.156 51.28 164.708 51.48 165.428 51.48C165.86 51.48 166.236 51.392 166.556 51.216C166.892 51.024 167.172 50.776 167.396 50.472C167.636 50.152 167.812 49.784 167.924 49.368C168.052 48.936 168.116 48.48 168.116 48V42.24H171.26V54H168.308V52.464ZM173.953 54V36.816H177.097V54H173.953ZM181.203 44.928H179.139V42.24H181.203V38.64H184.347V42.24H187.227V44.928H184.347V49.488C184.347 49.76 184.371 50.016 184.419 50.256C184.483 50.48 184.595 50.672 184.755 50.832C184.979 51.088 185.299 51.216 185.715 51.216C185.987 51.216 186.203 51.192 186.363 51.144C186.523 51.08 186.675 51 186.819 50.904L187.707 53.664C187.339 53.84 186.939 53.968 186.507 54.048C186.091 54.144 185.627 54.192 185.115 54.192C184.523 54.192 183.987 54.104 183.507 53.928C183.043 53.736 182.651 53.48 182.331 53.16C181.579 52.44 181.203 51.416 181.203 50.088V44.928ZM196.553 52.752H196.361C195.993 53.2 195.545 53.584 195.017 53.904C194.505 54.224 193.841 54.384 193.025 54.384C192.417 54.384 191.841 54.28 191.297 54.072C190.769 53.88 190.305 53.608 189.905 53.256C189.505 52.904 189.193 52.48 188.969 51.984C188.745 51.488 188.633 50.944 188.633 50.352C188.633 49.744 188.753 49.2 188.993 48.72C189.233 48.224 189.569 47.8 190.001 47.448C190.433 47.096 190.937 46.832 191.513 46.656C192.105 46.464 192.745 46.368 193.433 46.368C194.201 46.368 194.833 46.432 195.329 46.56C195.825 46.672 196.233 46.792 196.553 46.92V46.56C196.553 45.936 196.305 45.424 195.809 45.024C195.313 44.608 194.697 44.4 193.961 44.4C192.873 44.4 191.953 44.856 191.201 45.768L188.921 44.208C190.169 42.64 191.873 41.856 194.033 41.856C195.857 41.856 197.249 42.288 198.209 43.152C199.169 44 199.649 45.264 199.649 46.944V54H196.553V52.752ZM196.553 49.224C196.185 49.048 195.801 48.912 195.401 48.816C195.017 48.704 194.593 48.648 194.129 48.648C193.377 48.648 192.793 48.816 192.377 49.152C191.977 49.472 191.777 49.872 191.777 50.352C191.777 50.832 191.969 51.216 192.353 51.504C192.753 51.792 193.209 51.936 193.721 51.936C194.137 51.936 194.521 51.864 194.873 51.72C195.225 51.56 195.521 51.36 195.761 51.12C196.017 50.864 196.209 50.576 196.337 50.256C196.481 49.92 196.553 49.576 196.553 49.224ZM206.688 54.384C205.92 54.384 205.232 54.288 204.624 54.096C204.032 53.904 203.512 53.656 203.064 53.352C202.632 53.032 202.264 52.672 201.96 52.272C201.656 51.856 201.424 51.44 201.264 51.024L204.072 49.824C204.344 50.432 204.704 50.888 205.152 51.192C205.616 51.48 206.128 51.624 206.688 51.624C207.264 51.624 207.72 51.52 208.056 51.312C208.392 51.104 208.56 50.856 208.56 50.568C208.56 50.248 208.416 49.992 208.128 49.8C207.856 49.592 207.376 49.408 206.688 49.248L205.032 48.888C204.664 48.808 204.28 48.68 203.88 48.504C203.496 48.328 203.144 48.104 202.824 47.832C202.504 47.56 202.24 47.232 202.032 46.848C201.824 46.464 201.72 46.016 201.72 45.504C201.72 44.928 201.84 44.416 202.08 43.968C202.336 43.52 202.68 43.144 203.112 42.84C203.544 42.52 204.048 42.28 204.624 42.12C205.216 41.944 205.848 41.856 206.52 41.856C207.64 41.856 208.64 42.08 209.52 42.528C210.4 42.96 211.048 43.656 211.464 44.616L208.752 45.72C208.528 45.256 208.2 44.92 207.768 44.712C207.336 44.504 206.904 44.4 206.472 44.4C206.024 44.4 205.632 44.496 205.296 44.688C204.96 44.864 204.792 45.096 204.792 45.384C204.792 45.656 204.928 45.872 205.2 46.032C205.488 46.192 205.872 46.336 206.352 46.464L208.152 46.896C209.352 47.184 210.24 47.648 210.816 48.288C211.408 48.912 211.704 49.656 211.704 50.52C211.704 51.032 211.584 51.52 211.344 51.984C211.104 52.448 210.76 52.864 210.312 53.232C209.88 53.584 209.352 53.864 208.728 54.072C208.12 54.28 207.44 54.384 206.688 54.384ZM215.268 40.536C214.996 40.536 214.732 40.488 214.476 40.392C214.236 40.28 214.02 40.136 213.828 39.96C213.652 39.768 213.508 39.552 213.396 39.312C213.3 39.072 213.252 38.808 213.252 38.52C213.252 38.232 213.3 37.968 213.396 37.728C213.508 37.488 213.652 37.28 213.828 37.104C214.02 36.912 214.236 36.768 214.476 36.672C214.732 36.56 214.996 36.504 215.268 36.504C215.828 36.504 216.308 36.704 216.708 37.104C217.108 37.488 217.308 37.96 217.308 38.52C217.308 39.08 217.108 39.56 216.708 39.96C216.308 40.344 215.828 40.536 215.268 40.536ZM213.708 54V42.24H216.852V54H213.708ZM225.384 36.816H231.192C232.552 36.816 233.776 37.024 234.864 37.44C235.952 37.856 236.88 38.448 237.648 39.216C238.416 39.968 239 40.872 239.4 41.928C239.816 42.984 240.024 44.144 240.024 45.408C240.024 46.688 239.816 47.856 239.4 48.912C239 49.968 238.416 50.872 237.648 51.624C236.88 52.376 235.952 52.96 234.864 53.376C233.776 53.792 232.552 54 231.192 54H225.384V36.816ZM231.048 50.928C231.992 50.928 232.824 50.8 233.544 50.544C234.264 50.272 234.864 49.896 235.344 49.416C235.824 48.936 236.184 48.36 236.424 47.688C236.664 47 236.784 46.24 236.784 45.408C236.784 44.576 236.664 43.824 236.424 43.152C236.184 42.464 235.824 41.88 235.344 41.4C234.864 40.92 234.264 40.552 233.544 40.296C232.824 40.024 231.992 39.888 231.048 39.888H228.624V50.928H231.048ZM253.035 51.168C252.491 52.128 251.755 52.904 250.827 53.496C249.915 54.088 248.795 54.384 247.467 54.384C246.571 54.384 245.739 54.232 244.971 53.928C244.219 53.608 243.563 53.168 243.003 52.608C242.443 52.048 242.003 51.392 241.683 50.64C241.379 49.872 241.227 49.032 241.227 48.12C241.227 47.272 241.379 46.472 241.683 45.72C241.987 44.952 242.411 44.288 242.955 43.728C243.499 43.152 244.139 42.696 244.875 42.36C245.627 42.024 246.451 41.856 247.347 41.856C248.291 41.856 249.131 42.016 249.867 42.336C250.603 42.64 251.219 43.072 251.715 43.632C252.211 44.176 252.587 44.824 252.843 45.576C253.099 46.328 253.227 47.144 253.227 48.024C253.227 48.136 253.227 48.232 253.227 48.312C253.211 48.408 253.203 48.496 253.203 48.576C253.187 48.656 253.179 48.744 253.179 48.84H244.323C244.387 49.32 244.515 49.736 244.707 50.088C244.915 50.424 245.163 50.712 245.451 50.952C245.755 51.176 246.083 51.344 246.435 51.456C246.787 51.552 247.147 51.6 247.515 51.6C248.235 51.6 248.827 51.44 249.291 51.12C249.771 50.784 250.147 50.368 250.419 49.872L253.035 51.168ZM250.179 46.608C250.163 46.4 250.091 46.168 249.963 45.912C249.851 45.656 249.675 45.416 249.435 45.192C249.211 44.968 248.923 44.784 248.571 44.64C248.235 44.496 247.827 44.424 247.347 44.424C246.675 44.424 246.083 44.616 245.571 45C245.059 45.384 244.699 45.92 244.491 46.608H250.179ZM258.187 43.776H258.379C258.747 43.184 259.243 42.72 259.867 42.384C260.491 42.032 261.203 41.856 262.003 41.856C262.739 41.856 263.387 41.976 263.947 42.216C264.507 42.456 264.963 42.8 265.315 43.248C265.683 43.68 265.955 44.208 266.131 44.832C266.323 45.44 266.419 46.12 266.419 46.872V54H263.275V47.256C263.275 46.408 263.083 45.784 262.699 45.384C262.331 44.968 261.787 44.76 261.067 44.76C260.635 44.76 260.251 44.856 259.915 45.048C259.595 45.224 259.315 45.472 259.075 45.792C258.851 46.096 258.675 46.464 258.547 46.896C258.435 47.312 258.379 47.76 258.379 48.24V54H255.235V42.24H258.187V43.776ZM274.323 59.568C273.491 59.568 272.747 59.456 272.091 59.232C271.451 59.024 270.891 58.744 270.411 58.392C269.931 58.056 269.531 57.68 269.211 57.264C268.891 56.848 268.659 56.432 268.515 56.016L271.515 54.816C271.739 55.44 272.107 55.92 272.619 56.256C273.131 56.608 273.699 56.784 274.323 56.784C275.315 56.784 276.099 56.472 276.675 55.848C277.251 55.24 277.539 54.384 277.539 53.28V52.464H277.347C276.979 52.976 276.491 53.384 275.883 53.688C275.291 53.976 274.587 54.12 273.771 54.12C273.067 54.12 272.379 53.976 271.707 53.688C271.051 53.4 270.467 52.992 269.955 52.464C269.443 51.92 269.027 51.272 268.707 50.52C268.387 49.768 268.227 48.928 268.227 48C268.227 47.072 268.387 46.232 268.707 45.48C269.027 44.712 269.443 44.064 269.955 43.536C270.467 42.992 271.051 42.576 271.707 42.288C272.379 42 273.067 41.856 273.771 41.856C274.587 41.856 275.291 42.008 275.883 42.312C276.491 42.6 276.979 43 277.347 43.512H277.539V42.24H280.539V53.16C280.539 54.152 280.387 55.04 280.083 55.824C279.779 56.624 279.355 57.296 278.811 57.84C278.267 58.4 277.611 58.824 276.843 59.112C276.091 59.416 275.251 59.568 274.323 59.568ZM274.443 51.288C274.827 51.288 275.203 51.216 275.571 51.072C275.955 50.928 276.291 50.72 276.579 50.448C276.867 50.16 277.099 49.816 277.275 49.416C277.451 49 277.539 48.528 277.539 48C277.539 47.472 277.451 47 277.275 46.584C277.099 46.168 276.867 45.824 276.579 45.552C276.291 45.264 275.955 45.048 275.571 44.904C275.203 44.76 274.827 44.688 274.443 44.688C274.059 44.688 273.683 44.76 273.315 44.904C272.947 45.048 272.619 45.264 272.331 45.552C272.043 45.84 271.811 46.192 271.635 46.608C271.459 47.008 271.371 47.472 271.371 48C271.371 48.528 271.459 49 271.635 49.416C271.811 49.816 272.043 50.16 272.331 50.448C272.619 50.72 272.947 50.928 273.315 51.072C273.683 51.216 274.059 51.288 274.443 51.288ZM290.35 52.752H290.158C289.79 53.2 289.342 53.584 288.814 53.904C288.302 54.224 287.638 54.384 286.822 54.384C286.214 54.384 285.638 54.28 285.094 54.072C284.566 53.88 284.102 53.608 283.702 53.256C283.302 52.904 282.99 52.48 282.766 51.984C282.542 51.488 282.43 50.944 282.43 50.352C282.43 49.744 282.55 49.2 282.79 48.72C283.03 48.224 283.366 47.8 283.798 47.448C284.23 47.096 284.734 46.832 285.31 46.656C285.902 46.464 286.542 46.368 287.23 46.368C287.998 46.368 288.63 46.432 289.126 46.56C289.622 46.672 290.03 46.792 290.35 46.92V46.56C290.35 45.936 290.102 45.424 289.606 45.024C289.11 44.608 288.494 44.4 287.758 44.4C286.67 44.4 285.75 44.856 284.998 45.768L282.718 44.208C283.966 42.64 285.67 41.856 287.83 41.856C289.654 41.856 291.046 42.288 292.006 43.152C292.966 44 293.446 45.264 293.446 46.944V54H290.35V52.752ZM290.35 49.224C289.982 49.048 289.598 48.912 289.198 48.816C288.814 48.704 288.39 48.648 287.926 48.648C287.174 48.648 286.59 48.816 286.174 49.152C285.774 49.472 285.574 49.872 285.574 50.352C285.574 50.832 285.766 51.216 286.15 51.504C286.55 51.792 287.006 51.936 287.518 51.936C287.934 51.936 288.318 51.864 288.67 51.72C289.022 51.56 289.318 51.36 289.558 51.12C289.814 50.864 290.006 50.576 290.134 50.256C290.278 49.92 290.35 49.576 290.35 49.224ZM298.898 43.776H299.09C299.458 43.184 299.954 42.72 300.578 42.384C301.202 42.032 301.914 41.856 302.714 41.856C303.45 41.856 304.098 41.976 304.658 42.216C305.218 42.456 305.674 42.8 306.026 43.248C306.394 43.68 306.666 44.208 306.842 44.832C307.034 45.44 307.13 46.12 307.13 46.872V54H303.986V47.256C303.986 46.408 303.794 45.784 303.41 45.384C303.042 44.968 302.498 44.76 301.778 44.76C301.346 44.76 300.962 44.856 300.626 45.048C300.306 45.224 300.026 45.472 299.786 45.792C299.562 46.096 299.386 46.464 299.258 46.896C299.146 47.312 299.09 47.76 299.09 48.24V54H295.946V42.24H298.898V43.776ZM315.384 36.816H321.192C322.552 36.816 323.776 37.024 324.864 37.44C325.952 37.856 326.88 38.448 327.648 39.216C328.416 39.968 329 40.872 329.4 41.928C329.816 42.984 330.024 44.144 330.024 45.408C330.024 46.688 329.816 47.856 329.4 48.912C329 49.968 328.416 50.872 327.648 51.624C326.88 52.376 325.952 52.96 324.864 53.376C323.776 53.792 322.552 54 321.192 54H315.384V36.816ZM321.048 50.928C321.992 50.928 322.824 50.8 323.544 50.544C324.264 50.272 324.864 49.896 325.344 49.416C325.824 48.936 326.184 48.36 326.424 47.688C326.664 47 326.784 46.24 326.784 45.408C326.784 44.576 326.664 43.824 326.424 43.152C326.184 42.464 325.824 41.88 325.344 41.4C324.864 40.92 324.264 40.552 323.544 40.296C322.824 40.024 321.992 39.888 321.048 39.888H318.624V50.928H321.048ZM337.467 41.856C338.379 41.856 339.211 42.016 339.963 42.336C340.731 42.64 341.387 43.072 341.931 43.632C342.491 44.176 342.923 44.832 343.227 45.6C343.547 46.368 343.707 47.208 343.707 48.12C343.707 49.032 343.547 49.872 343.227 50.64C342.923 51.408 342.491 52.072 341.931 52.632C341.387 53.176 340.731 53.608 339.963 53.928C339.211 54.232 338.379 54.384 337.467 54.384C336.555 54.384 335.715 54.232 334.947 53.928C334.195 53.608 333.539 53.176 332.979 52.632C332.435 52.072 332.003 51.408 331.683 50.64C331.379 49.872 331.227 49.032 331.227 48.12C331.227 47.208 331.379 46.368 331.683 45.6C332.003 44.832 332.435 44.176 332.979 43.632C333.539 43.072 334.195 42.64 334.947 42.336C335.715 42.016 336.555 41.856 337.467 41.856ZM337.467 51.48C337.867 51.48 338.251 51.408 338.619 51.264C339.003 51.104 339.339 50.88 339.627 50.592C339.915 50.304 340.139 49.952 340.299 49.536C340.475 49.12 340.563 48.648 340.563 48.12C340.563 47.592 340.475 47.12 340.299 46.704C340.139 46.288 339.915 45.936 339.627 45.648C339.339 45.36 339.003 45.144 338.619 45C338.251 44.84 337.867 44.76 337.467 44.76C337.051 44.76 336.659 44.84 336.291 45C335.923 45.144 335.595 45.36 335.307 45.648C335.019 45.936 334.787 46.288 334.611 46.704C334.451 47.12 334.371 47.592 334.371 48.12C334.371 48.648 334.451 49.12 334.611 49.536C334.787 49.952 335.019 50.304 335.307 50.592C335.595 50.88 335.923 51.104 336.291 51.264C336.659 51.408 337.051 51.48 337.467 51.48ZM345.61 36.816H348.754V46.176H348.898L352.834 42.24H356.722V42.432L352.354 46.68L357.082 53.808V54H353.362L350.146 48.84L348.754 50.208V54H345.61V36.816ZM359.632 44.928H357.568V42.24H359.632V38.64H362.776V42.24H365.656V44.928H362.776V49.488C362.776 49.76 362.8 50.016 362.848 50.256C362.912 50.48 363.024 50.672 363.184 50.832C363.408 51.088 363.728 51.216 364.144 51.216C364.416 51.216 364.632 51.192 364.792 51.144C364.952 51.08 365.104 51 365.248 50.904L366.136 53.664C365.768 53.84 365.368 53.968 364.936 54.048C364.52 54.144 364.056 54.192 363.544 54.192C362.952 54.192 362.416 54.104 361.936 53.928C361.472 53.736 361.08 53.48 360.76 53.16C360.008 52.44 359.632 51.416 359.632 50.088V44.928ZM378.988 51.168C378.444 52.128 377.708 52.904 376.78 53.496C375.868 54.088 374.748 54.384 373.42 54.384C372.524 54.384 371.692 54.232 370.924 53.928C370.172 53.608 369.516 53.168 368.956 52.608C368.396 52.048 367.956 51.392 367.636 50.64C367.332 49.872 367.18 49.032 367.18 48.12C367.18 47.272 367.332 46.472 367.636 45.72C367.94 44.952 368.364 44.288 368.908 43.728C369.452 43.152 370.092 42.696 370.828 42.36C371.58 42.024 372.404 41.856 373.3 41.856C374.244 41.856 375.084 42.016 375.82 42.336C376.556 42.64 377.172 43.072 377.668 43.632C378.164 44.176 378.54 44.824 378.796 45.576C379.052 46.328 379.18 47.144 379.18 48.024C379.18 48.136 379.18 48.232 379.18 48.312C379.164 48.408 379.156 48.496 379.156 48.576C379.14 48.656 379.132 48.744 379.132 48.84H370.276C370.34 49.32 370.468 49.736 370.66 50.088C370.868 50.424 371.116 50.712 371.404 50.952C371.708 51.176 372.036 51.344 372.388 51.456C372.74 51.552 373.1 51.6 373.468 51.6C374.188 51.6 374.78 51.44 375.244 51.12C375.724 50.784 376.1 50.368 376.372 49.872L378.988 51.168ZM376.132 46.608C376.116 46.4 376.044 46.168 375.916 45.912C375.804 45.656 375.628 45.416 375.388 45.192C375.164 44.968 374.876 44.784 374.524 44.64C374.188 44.496 373.78 44.424 373.3 44.424C372.628 44.424 372.036 44.616 371.524 45C371.012 45.384 370.652 45.92 370.444 46.608H376.132ZM381.188 42.24H384.14V43.872H384.332C384.476 43.584 384.668 43.32 384.908 43.08C385.148 42.84 385.412 42.632 385.7 42.456C386.004 42.28 386.324 42.144 386.66 42.048C387.012 41.952 387.356 41.904 387.692 41.904C388.108 41.904 388.46 41.944 388.748 42.024C389.052 42.104 389.308 42.208 389.516 42.336L388.676 45.192C388.484 45.096 388.268 45.024 388.028 44.976C387.804 44.912 387.524 44.88 387.188 44.88C386.756 44.88 386.364 44.968 386.012 45.144C385.66 45.304 385.356 45.536 385.1 45.84C384.86 46.144 384.668 46.504 384.524 46.92C384.396 47.32 384.332 47.76 384.332 48.24V54H381.188V42.24Z" fill="#FF6185"/>
<path d="M50 74C66.0163 74 79 61.0163 79 45C79 28.9837 66.0163 16 50 16C33.9837 16 21 28.9837 21 45C21 61.0163 33.9837 74 50 74Z" fill="#CCD9EF"/>
<path d="M38.777 71.32L38.817 71.338L40.192 62.018L38.777 71.32Z" fill="#CCD9EF"/>
<path opacity="0.1" d="M50.103 16.048C41.807 16.048 34.335 19.562 29.081 25.176H38.815C39.567 25.176 40.183 25.792 40.183 26.544V34.908C40.217 34.93 40.253 34.945 40.283 34.975L41.526 36.018C41.743 36.235 41.743 36.586 41.526 36.803L40.283 37.846C40.253 37.876 40.217 37.892 40.183 37.913V46.278C40.183 47.03 39.567 47.645 38.815 47.645H22.676C22.06 47.645 21.542 47.229 21.373 46.666C21.996 56.624 27.677 65.204 35.88 69.874L37.387 60.973L38.94 53.11L39.029 52.663C39.029 52.663 39.973 49.437 44.749 46.686C46.537 45.656 47.748 44.945 48.519 44.486C48.899 43.61 49.514 42.627 50.513 41.83C50.821 41.584 51.158 41.378 51.509 41.192L51.574 41.78C51.326 41.924 51.085 42.08 50.861 42.258C50.229 42.761 49.765 43.355 49.421 43.943L49.643 43.806L51.648 42.44L51.358 39.84C51.341 39.83 48.572 40.319 47.686 38.475C46.91 36.858 46.65 29.228 46.591 26.873C45.811 26.113 45.117 25.107 44.849 24.162C44.577 23.2 44.391 21.687 45.232 21.146C45.855 20.746 47.188 21.238 47.992 21.581C46.69 20.939 46.456 19.387 51.272 20.253C52.412 20.458 53.568 20.543 54.664 20.92C56.654 21.605 58.731 22.594 59.697 24.463C60.666 26.335 60.272 28.59 59.855 30.656C59.672 31.56 59.477 31.484 59.445 32.585C59.621 34.09 59.455 35.773 59.583 37.123L59.526 37.107C59.835 39.756 60.26 42.097 60.321 42.403H60.323C60.332 42.449 60.33 42.447 60.323 42.406C60.321 42.41 60.313 42.429 60.301 42.463L60.428 42.508C60.391 42.472 60.359 42.433 60.321 42.398C60.304 42.315 60.249 42.018 60.173 41.578C60.705 41.949 61.129 42.393 61.471 42.891C62.206 43.171 62.917 43.467 63.556 43.772C63.556 43.772 71.22 46.515 71.988 50.272C72.329 51.94 72.469 57.502 70.077 62.429C70.077 62.429 69.665 64.197 69.082 66.486C75.096 61.209 78.897 53.472 78.897 44.842C78.897 28.94 66.0051 16.048 50.103 16.048Z" fill="#CCD9EF"/>
<path d="M71.988 50.273C71.22 46.515 63.556 43.773 63.556 43.773C62.916 43.467 62.206 43.171 61.471 42.891C63.008 45.126 62.83 48.466 62.666 51.355C62.588 52.75 62.516 54.085 62.636 55.17C62.711 55.17 62.786 55.17 62.862 55.18C63.61 55.292 64.127 55.989 64.016 56.737C63.906 57.485 63.209 58.002 62.46 57.891C61.712 57.781 61.195 57.084 61.306 56.335C61.376 55.858 61.686 55.477 62.096 55.291C61.961 54.145 62.034 52.765 62.116 51.324C62.299 48.073 62.492 44.511 60.428 42.508L60.301 42.463C60.06 43.091 57.801 48.682 52.246 52.706C52.246 52.706 50.756 45.515 51.759 43.435L51.649 42.44L49.643 43.806L49.42 43.943C48.758 45.073 48.546 46.178 48.488 46.585C49.761 47.426 48.58 50.625 48.433 51.005C47.506 53.78 46.518 55.75 45.485 56.89L45.492 56.913H48.295L48.151 57.876H45.931C45.96 57.913 45.988 57.953 46.015 57.983C46.245 58.239 46.492 58.346 46.679 58.391C46.797 58.251 46.976 58.167 47.17 58.196C47.469 58.24 47.675 58.518 47.63 58.816C47.586 59.115 47.308 59.321 47.01 59.276C46.81 59.246 46.66 59.108 46.59 58.932C46.307 58.872 45.943 58.726 45.606 58.352C45.48 58.214 45.37 58.054 45.272 57.876H44.18C44.08 57.918 43.98 57.953 43.88 57.981C43.43 58.104 43.06 58.051 42.793 57.961C42.687 58.028 42.559 58.064 42.424 58.045C42.126 58 41.92 57.723 41.964 57.425C42.009 57.125 42.286 56.92 42.584 56.965C42.798 56.995 42.96 57.149 43.021 57.342L43.085 56.912H44.652C44.723 56.852 44.794 56.793 44.87 56.719C44.572 55.196 44.793 52.951 45.534 50.01C45.611 49.712 46.317 47.096 47.45 46.52C47.615 46.437 47.785 46.403 47.954 46.409C48.014 46.021 48.164 45.302 48.518 44.485C47.747 44.945 46.536 45.657 44.748 46.686C39.972 49.437 39.028 52.663 39.028 52.663L38.939 53.11C39.614 54.255 40.333 55.372 41.074 56.476L40.191 62.019L38.817 71.339C40.485 72.049 42.235 72.605 44.047 72.993C45.417 72.513 55.072 69.115 56.164 68.391C58.164 67.066 64.706 56.243 64.706 56.243L60.291 70.923L44.149 73.017C46.07 73.42 48.061 73.637 50.102 73.637C57.375 73.637 64.013 70.934 69.082 66.487C69.664 64.197 70.076 62.429 70.076 62.429C72.468 57.503 72.328 51.939 71.987 50.273H71.988Z" fill="white"/>
<path d="M48.09 46.987C48.055 46.973 48.02 46.964 47.985 46.958C47.892 46.945 47.799 46.962 47.701 47.013C46.927 47.405 46.261 49.408 46.07 50.147C45.33 53.083 45.215 54.966 45.355 56.17C46.104 55.215 46.99 53.585 47.915 50.817C48.255 49.931 49.01 47.353 48.091 46.987H48.09Z" fill="white"/>
<path d="M41.075 56.476C40.334 55.372 39.615 54.255 38.94 53.11L37.387 60.973L35.88 69.874C36.815 70.407 37.78 70.893 38.777 71.32L40.192 62.019L41.075 56.476Z" fill="#ECF0F9"/>
<path d="M60.323 42.403H60.321H60.322H60.323ZM56.021 44.444C54.969 44.944 53.774 44.867 52.806 44.323L52.801 44.329C52.784 44.319 52.769 44.304 52.751 44.294C52.61 44.211 52.476 44.114 52.345 44.011C52.304 43.978 52.259 43.95 52.219 43.914C52.054 43.77 51.899 43.613 51.759 43.435C50.756 45.515 52.246 52.706 52.246 52.706C57.8 48.682 60.06 43.091 60.301 42.463L60.322 42.406V42.403L56.022 44.444H56.021Z" fill="#DE1B50"/>
<path d="M51.363 39.884C51.503 39.868 51.653 39.842 51.816 39.814C52.715 39.658 53.576 39.401 54.438 39.106L57.945 37.904C57.419 38.767 56.738 39.55 56.088 40.307C54.991 41.586 53.957 42.914 52.892 44.219L52.806 44.323C53.774 44.867 54.969 44.943 56.021 44.444L60.321 42.404V42.403C60.261 42.096 59.835 39.756 59.526 37.107C58.622 36.852 57.636 36.514 57.209 35.683C57.015 35.307 56.963 34.867 56.743 34.506C56.302 33.783 55.316 33.559 54.827 32.867C54.071 31.796 54.869 30.286 54.546 29.015C54.489 28.794 54.387 28.567 54.192 28.448C54.018 28.341 53.802 28.338 53.598 28.338L51.301 28.341C49.941 28.342 48.481 28.314 47.37 27.528C47.109 27.343 46.845 27.12 46.59 26.873C46.65 29.228 46.91 36.858 47.686 38.475C48.572 40.319 51.341 39.83 51.358 39.841L51.648 42.44L51.759 43.435L51.363 39.884ZM60.322 42.406C60.33 42.446 60.332 42.449 60.323 42.403H60.322V42.406ZM52.752 44.294C52.61 44.211 52.476 44.114 52.345 44.011C52.475 44.115 52.61 44.211 52.752 44.294Z" fill="#FABCA3"/>
<path d="M52.219 43.914C52.054 43.771 51.899 43.613 51.759 43.435C51.899 43.613 52.054 43.77 52.219 43.915V43.914Z" fill="#FABCA3"/>
<path d="M52.345 44.01C52.475 44.114 52.61 44.211 52.752 44.294C52.769 44.304 52.784 44.319 52.802 44.329L52.806 44.323L52.892 44.219C53.957 42.914 54.992 41.586 56.088 40.307C56.738 39.55 57.419 38.767 57.945 37.904L54.438 39.106C53.576 39.401 52.715 39.658 51.816 39.813C51.653 39.842 51.503 39.868 51.363 39.883L51.759 43.435C51.899 43.613 52.054 43.771 52.219 43.915C52.259 43.95 52.304 43.978 52.345 44.011V44.01Z" fill="#F69679"/>
<path d="M51.301 28.34C52.067 28.34 52.832 28.34 53.598 28.338C53.802 28.338 54.018 28.341 54.192 28.448C54.387 28.568 54.489 28.794 54.546 29.015C54.869 30.286 54.071 31.796 54.827 32.867C55.316 33.559 56.302 33.783 56.743 34.506C56.963 34.866 57.015 35.306 57.209 35.683C57.636 36.514 58.622 36.853 59.526 37.107L59.583 37.123C59.455 35.773 59.621 34.09 59.444 32.585C59.477 31.484 59.672 31.56 59.854 30.655C60.272 28.59 60.666 26.335 59.697 24.463C58.731 22.594 56.653 21.605 54.664 20.92C53.568 20.543 52.412 20.458 51.272 20.253C46.456 19.387 46.69 20.939 47.992 21.581C47.188 21.238 45.855 20.745 45.232 21.146C44.392 21.686 44.577 23.2 44.849 24.162C45.117 25.107 45.81 26.112 46.591 26.872C46.845 27.12 47.109 27.342 47.37 27.528C48.48 28.314 49.94 28.342 51.301 28.341V28.34Z" fill="#1F2B7B"/>
<path d="M60.292 70.923L64.707 56.243C64.707 56.243 58.166 67.066 56.165 68.391C55.073 69.115 45.418 72.513 44.048 72.993C44.083 73 44.116 73.009 44.15 73.017L60.292 70.923ZM43.752 57.444C43.988 57.377 44.296 57.22 44.652 56.913H43.086L43.022 57.342C43.034 57.379 43.036 57.419 43.039 57.459C43.219 57.507 43.458 57.529 43.752 57.444ZM48.151 57.876L48.295 56.913H45.492C45.612 57.368 45.774 57.671 45.932 57.876H48.151ZM44.18 57.876H45.272C45.181 57.711 45.1 57.531 45.032 57.333C44.752 57.574 44.468 57.755 44.181 57.876H44.18Z" fill="#ECF0F9"/>
<path d="M62.116 51.324C62.034 52.765 61.961 54.144 62.096 55.291C62.263 55.215 62.446 55.174 62.636 55.171C62.516 54.086 62.588 52.751 62.666 51.355C62.83 48.466 63.008 45.126 61.471 42.891C61.129 42.393 60.705 41.949 60.173 41.578C60.249 42.018 60.304 42.315 60.321 42.398C60.359 42.433 60.391 42.472 60.428 42.508C62.492 44.511 62.299 48.073 62.116 51.324ZM47.45 46.52C46.318 47.096 45.612 49.712 45.535 50.01C44.795 52.951 44.573 55.196 44.871 56.719C44.795 56.793 44.724 56.851 44.653 56.913C44.296 57.22 43.988 57.377 43.753 57.444C43.458 57.529 43.218 57.507 43.039 57.459C43.043 57.501 43.052 57.541 43.046 57.584C43.021 57.748 42.924 57.878 42.794 57.96C43.061 58.05 43.43 58.104 43.881 57.98C43.981 57.953 44.081 57.918 44.181 57.876C44.468 57.756 44.751 57.574 45.032 57.333C45.1 57.531 45.181 57.711 45.272 57.876C45.37 58.054 45.48 58.214 45.606 58.353C45.943 58.726 46.307 58.873 46.59 58.933C46.556 58.846 46.535 58.754 46.55 58.656C46.565 58.552 46.616 58.466 46.68 58.391C46.492 58.346 46.246 58.239 46.015 57.983C45.988 57.953 45.96 57.913 45.931 57.876C45.774 57.671 45.612 57.368 45.492 56.913L45.485 56.89C46.518 55.75 47.506 53.78 48.433 51.004C48.58 50.625 49.761 47.426 48.488 46.584C48.546 46.178 48.758 45.074 49.42 43.943C49.765 43.355 50.229 42.761 50.861 42.258C51.085 42.08 51.326 41.924 51.574 41.78L51.509 41.192C51.158 41.378 50.821 41.584 50.513 41.83C49.514 42.627 48.899 43.61 48.519 44.485C48.164 45.302 48.015 46.021 47.955 46.409C47.785 46.403 47.615 46.437 47.451 46.521L47.45 46.52ZM47.914 50.817C46.99 53.585 46.104 55.215 45.354 56.17C45.215 54.966 45.33 53.083 46.07 50.147C46.261 49.408 46.927 47.405 47.7 47.013C47.8 46.963 47.892 46.945 47.985 46.958C48.02 46.964 48.055 46.973 48.091 46.988C49.011 47.353 48.255 49.931 47.914 50.818V50.817Z" fill="#586BB2"/>
<path d="M43.046 57.584C43.052 57.541 43.043 57.501 43.039 57.459C43.036 57.419 43.034 57.379 43.022 57.342C42.961 57.149 42.799 56.996 42.586 56.964C42.287 56.92 42.01 57.126 41.966 57.424C41.921 57.723 42.127 58 42.426 58.044C42.56 58.064 42.688 58.028 42.794 57.96C42.924 57.878 43.021 57.748 43.046 57.584ZM62.096 55.29C61.686 55.477 61.376 55.858 61.306 56.335C61.195 57.084 61.712 57.78 62.46 57.891C63.209 58.002 63.905 57.485 64.016 56.737C64.127 55.989 63.61 55.292 62.862 55.181C62.786 55.17 62.711 55.169 62.637 55.171C62.446 55.174 62.263 55.215 62.096 55.291V55.29ZM62.766 55.827C63.158 55.885 63.428 56.25 63.37 56.641C63.312 57.033 62.948 57.303 62.556 57.245C62.164 57.187 61.894 56.823 61.952 56.431C62.01 56.039 62.375 55.769 62.766 55.827ZM46.59 58.932C46.66 59.108 46.81 59.247 47.01 59.276C47.308 59.321 47.586 59.115 47.63 58.816C47.675 58.518 47.469 58.24 47.17 58.196C46.976 58.167 46.797 58.251 46.68 58.391C46.616 58.466 46.565 58.551 46.55 58.656C46.535 58.754 46.556 58.846 46.59 58.932Z" fill="#1F2B7B"/>
<path d="M61.952 56.43C61.894 56.823 62.164 57.187 62.556 57.245C62.948 57.303 63.312 57.033 63.37 56.641C63.428 56.25 63.158 55.885 62.766 55.827C62.375 55.769 62.01 56.039 61.952 56.431V56.43Z" fill="#F1F1F2"/>
<path d="M22.676 47.645H38.816C39.567 47.645 40.183 47.03 40.183 46.278V37.913C40.217 37.892 40.253 37.876 40.283 37.846L41.526 36.803C41.743 36.586 41.743 36.235 41.526 36.018L40.283 34.975C40.253 34.945 40.217 34.93 40.183 34.908V26.544C40.183 25.792 39.567 25.176 38.815 25.176H22.676C21.924 25.176 21.309 25.792 21.309 26.544V46.278C21.309 46.413 21.335 46.542 21.373 46.666C21.542 47.229 22.06 47.645 22.676 47.645ZM31.351 41.885C31.351 42.021 31.239 42.133 31.103 42.133H25.465C25.328 42.133 25.217 42.021 25.217 41.885V41.225C25.217 41.088 25.328 40.976 25.465 40.976H31.103C31.239 40.976 31.351 41.088 31.351 41.224V41.885ZM36.275 38.508C36.275 38.645 36.163 38.756 36.027 38.756H25.465C25.328 38.756 25.217 38.645 25.217 38.508V37.848C25.217 37.711 25.328 37.6 25.465 37.6H36.027C36.163 37.6 36.275 37.711 36.275 37.847V38.508ZM36.275 35.132C36.275 35.268 36.163 35.379 36.027 35.379H25.465C25.328 35.379 25.217 35.268 25.217 35.132V34.471C25.217 34.334 25.328 34.223 25.465 34.223H36.027C36.163 34.223 36.275 34.334 36.275 34.471V35.131V35.132ZM36.275 31.094V31.754C36.275 31.891 36.163 32.003 36.027 32.003H25.465C25.328 32.003 25.217 31.891 25.217 31.755V31.094C25.217 30.958 25.328 30.846 25.465 30.846H36.027C36.163 30.846 36.275 30.958 36.275 31.094Z" fill="#DE1B50"/>
<path d="M25.217 31.094V31.754C25.217 31.891 25.328 32.003 25.465 32.003H36.027C36.163 32.003 36.275 31.891 36.275 31.755V31.094C36.275 30.958 36.163 30.846 36.027 30.846H25.465C25.328 30.846 25.217 30.958 25.217 31.094ZM36.027 34.223H25.465C25.328 34.223 25.217 34.334 25.217 34.471V35.131C25.217 35.268 25.328 35.379 25.465 35.379H36.027C36.163 35.379 36.275 35.268 36.275 35.132V34.471C36.275 34.334 36.163 34.223 36.027 34.223ZM36.027 37.6H25.465C25.328 37.6 25.217 37.711 25.217 37.847V38.508C25.217 38.645 25.328 38.756 25.465 38.756H36.027C36.163 38.756 36.275 38.645 36.275 38.508V37.848C36.275 37.711 36.163 37.6 36.027 37.6ZM31.103 40.976H25.465C25.328 40.976 25.217 41.088 25.217 41.224V41.885C25.217 42.021 25.328 42.133 25.465 42.133H31.103C31.239 42.133 31.351 42.021 31.351 41.885V41.225C31.351 41.088 31.239 40.976 31.103 40.976Z" fill="white"/>
</svg>
